<?xml version="1.0" encoding="utf-8"?>
<!-- Generator: Adobe Illustrator 23.0.1, SVG Export Plug-In . SVG Version: 6.00 Build 0)  -->
<svg version="1.1" id="Layer_1" xmlns="http://www.w3.org/2000/svg" xmlns:xlink="http://www.w3.org/1999/xlink" x="0px" y="0px"
	 viewBox="0 0 160.2 29" style="enable-background:new 0 0 160.2 29;" xml:space="preserve">
<style type="text/css">
	.st0{fill:#264292;}
</style>
<title>Blueground_wordmark_RGB</title>
<path class="st0" d="M0,0h4.9v9.8C6,8.6,7.5,8,9.1,8c4.1,0,6.9,3.4,6.9,7.3c0.2,3.9-2.8,7.1-6.7,7.3c-0.1,0-0.2,0-0.2,0
	c-1.6,0.1-3.2-0.7-4.1-2H4.9v1.6H0V0z M4.7,15.3c-0.1,1.6,1.1,3,2.8,3.1c0.1,0,0.2,0,0.3,0c1.6,0.1,3-1.1,3.1-2.7c0-0.1,0-0.3,0-0.4
	c0.1-1.7-1.2-3-2.9-3.1c-0.1,0-0.2,0-0.2,0c-1.7-0.1-3,1.2-3.1,2.9C4.7,15.2,4.7,15.3,4.7,15.3L4.7,15.3z"/>
<path class="st0" d="M23.5,22.2h-4.9V0h4.9V22.2z"/>
<path class="st0" d="M31.6,8.5v7.3c0,1.7,0.4,3,2.4,3s2.4-1.2,2.4-3V8.5h4.9v8.3c0,4.5-3.2,5.9-7.3,5.9s-7.3-1.4-7.3-5.9V8.5H31.6z"
	/>
<path class="st0" d="M58.9,16.2H48.6c-0.2,1.5,0.8,2.8,2.3,3c0.2,0,0.4,0,0.7,0c1,0.1,1.9-0.4,2.4-1.2h4.7c-0.8,3.2-3.8,4.7-7,4.7
	c-4.6,0-7.9-2.6-7.9-7.3S46.9,8,51.4,8c4.8,0,7.5,2.9,7.5,7.6V16.2z M54.4,13.4c-0.4-1.6-2-2.5-3.6-2.1c-1,0.3-1.8,1.1-2.1,2.1H54.4
	z"/>
<path class="st0" d="M76.1,20.9c0,5.8-2.9,8.2-7.9,8.2c-3.1,0-7.4-1.6-7.8-5.2h5.5c0.1,0.5,0.5,0.8,0.9,1c0.4,0.2,0.9,0.3,1.4,0.3
	c2.7,0,3.1-1.7,3.1-3.9v-0.6c-1.1,1.2-2.7,1.9-4.4,1.9c-3.7,0.1-6.7-2.9-6.8-6.6c0-0.1,0-0.3,0-0.4c0-4,2.8-7.4,7-7.4
	c1.6-0.1,3.1,0.6,4,1.9h0.1V8.5h4.9V20.9z M65.1,15.3c0.1,1.7,1.6,3,3.3,2.9c1.6-0.1,2.9-1.4,2.9-2.9c-0.1-1.7-1.6-3-3.3-2.9
	C66.5,12.4,65.2,13.7,65.1,15.3z"/>
<path class="st0" d="M84.3,10.7L84.3,10.7c0.9-1.6,2.7-2.6,4.5-2.4h0.9V13c-0.6-0.3-1.3-0.5-2.1-0.5c-2.7,0-3.4,1.8-3.4,4.1v5.5
	h-4.9V8.5h4.9V10.7z"/>
<path class="st0" d="M107.5,15.3c0,4.7-3.9,7.3-8.3,7.3s-8.3-2.6-8.3-7.3S94.8,8,99.2,8S107.5,10.7,107.5,15.3z M96.1,15.3
	c0,1.7,1.4,3.1,3.1,3.1c1.7,0,3.1-1.4,3.1-3.1s-1.4-3.1-3.1-3.1C97.5,12.2,96.1,13.6,96.1,15.3z"/>
<path class="st0" d="M114.7,8.5v7.3c0,1.7,0.4,3,2.4,3s2.4-1.2,2.4-3V8.5h4.9v8.3c0,4.5-3.2,5.9-7.3,5.9s-7.3-1.4-7.3-5.9V8.5H114.7
	z"/>
<path class="st0" d="M132.1,10.3L132.1,10.3c1-1.5,2.7-2.4,4.4-2.3c3.7,0,5.2,2.3,5.2,5.7v8.5h-4.8v-7.8c0-1.2-0.4-2.5-2.2-2.5
	c-2,0-2.5,1.5-2.5,3.2v7.1h-4.9V8.5h4.9L132.1,10.3z"/>
<path class="st0" d="M155.3,20.7L155.3,20.7c-1,1.3-2.6,2.1-4.2,2c-3.9,0-7-3.2-6.9-7.1c0-0.1,0-0.2,0-0.3c0-3.9,2.8-7.3,6.9-7.3
	c1.6,0,3.2,0.6,4.2,1.8V0h4.9v22.2h-4.9L155.3,20.7z M149.2,15.3c0,1.7,1.4,3.1,3.1,3.1c1.7,0,3.1-1.4,3.1-3.1
	c0-1.7-1.4-3.1-3.1-3.1C150.6,12.2,149.2,13.6,149.2,15.3z"/>
</svg>
